<?xml version="1.0" encoding="UTF-8"?>
<svg width="28px" height="28px" viewBox="0 0 28 28" version="1.1" xmlns="http://www.w3.org/2000/svg" xmlns:xlink="http://www.w3.org/1999/xlink">
    <!-- Generator: Sketch 59 (86127) - https://sketch.com -->
    <title>图标颜色</title>
    <desc>Created with Sketch.</desc>
    <g id="页面-1" stroke="none" stroke-width="1" fill="none" fill-rule="evenodd">
        <g id="消息页" transform="translate(-16.000000, -130.000000)">
            <rect id="矩形" fill="#2E2E2E" x="0" y="0" width="60" height="900"></rect>
            <g id="Filled/chats-2" transform="translate(16.000000, 130.000000)" fill="#05C160">
                <g id="Filled/chats">
                    <path d="M25.6666667,13.4166686 C25.6666667,7.93983478 20.4433133,3.5 14,3.5 C7.55668667,3.5 2.33333333,7.93983478 2.33333333,13.4166686 C2.33333333,16.3758153 3.85816667,19.0322288 6.27638667,20.849196 C6.27638667,20.849196 6.15890333,21.8598701 5.92393667,23.8812182 C5.88674333,24.2012187 6.11599333,24.4908069 6.43601,24.5280124 C6.54544333,24.5407156 6.65625333,24.5221865 6.75558333,24.4745493 C6.75558333,24.4745493 7.91562333,23.9183045 10.2357033,22.805815 C11.4166967,23.1478147 12.6828567,23.3333372 14,23.3333372 C20.4433133,23.3333372 25.6666667,18.8934814 25.6666667,13.4166686 C25.6666667,13.4166686 25.6666667,13.4166686 25.6666667,13.4166686 Z" id="图标颜色"></path>
                </g>
                <g id="Filled/chats">
                    <path d="M25.6666667,13.4166686 C25.6666667,7.93983478 20.4433133,3.5 14,3.5 C7.55668667,3.5 2.33333333,7.93983478 2.33333333,13.4166686 C2.33333333,16.3758153 3.85816667,19.0322288 6.27638667,20.849196 C6.27638667,20.849196 6.15890333,21.8598701 5.92393667,23.8812182 C5.88674333,24.2012187 6.11599333,24.4908069 6.43601,24.5280124 C6.54544333,24.5407156 6.65625333,24.5221865 6.75558333,24.4745493 C6.75558333,24.4745493 7.91562333,23.9183045 10.2357033,22.805815 C11.4166967,23.1478147 12.6828567,23.3333372 14,23.3333372 C20.4433133,23.3333372 25.6666667,18.8934814 25.6666667,13.4166686 C25.6666667,13.4166686 25.6666667,13.4166686 25.6666667,13.4166686 Z" id="图标颜色"></path>
                </g>
            </g>
        </g>
    </g>
</svg>