<?xml version="1.0" encoding="UTF-8"?>
<svg width="28px" height="28px" viewBox="0 0 28 28" version="1.1" xmlns="http://www.w3.org/2000/svg" xmlns:xlink="http://www.w3.org/1999/xlink">
    <!-- Generator: Sketch 59 (86127) - https://sketch.com -->
    <title>Outlined/chats</title>
    <desc>Created with Sketch.</desc>
    <g id="页面-1" stroke="none" stroke-width="1" fill="none" fill-rule="evenodd">
        <g id="通讯录" transform="translate(-16.000000, -130.000000)" fill="#979797">
            <g id="Outlined/chats-2" transform="translate(16.000000, 130.000000)">
                <g id="Outlined/chats">
                    <path d="M14,3.5 C20.4433133,3.5 25.6666667,7.93983478 25.6666667,13.4166686 C25.6666667,18.8934814 20.4433133,23.3333372 14,23.3333372 C12.6828567,23.3333372 11.4166967,23.1478147 10.2357033,22.805815 L6.75558333,24.4745493 C6.65625333,24.5221865 6.54544333,24.5407156 6.43601,24.5280124 C6.11599333,24.4908069 5.88674333,24.2012187 5.92393667,23.8812182 C5.92393667,23.8812182 6.04142,22.8705442 6.27638667,20.849196 C3.85816667,19.0322288 2.33333333,16.3758153 2.33333333,13.4166686 C2.33333333,7.93983478 7.55668667,3.5 14,3.5 Z M14.0000145,4.89999644 C8.28400661,4.89999644 3.73334757,8.76805672 3.73334757,13.4166671 C3.73334757,15.8385829 4.96643587,18.1137691 7.11738471,19.7299171 C7.11738471,19.7299171 7.33152685,19.8908197 7.75981113,20.212625 L7.48556792,22.571894 L10.1120482,21.3124709 L10.6251352,21.4610562 C11.6999731,21.7723113 12.8359182,21.9333377 14.0000145,21.9333377 C19.7160223,21.9333377 24.2666814,18.0652597 24.2666814,13.4166671 C24.2666814,8.76805672 19.7160223,4.89999644 14.0000145,4.89999644 Z" id="图标颜色"></path>
                </g>
            </g>
        </g>
    </g>
</svg>