<?xml version="1.0" encoding="UTF-8"?>
<svg width="12px" height="12px" viewBox="0 0 12 12" version="1.1" xmlns="http://www.w3.org/2000/svg" xmlns:xlink="http://www.w3.org/1999/xlink">
    <!-- Generator: Sketch 59 (86127) - https://sketch.com -->
    <title>编组 2</title>
    <desc>Created with Sketch.</desc>
    <g id="页面-1" stroke="none" stroke-width="1" fill="none" fill-rule="evenodd">
        <g id="登录-切换账号" transform="translate(-591.000000, -230.000000)">
            <g id="编组-3" transform="translate(591.000000, 230.000000)">
                <g id="编组-2">
                    <circle id="椭圆形" fill="#FA5051" cx="6" cy="6" r="6"></circle>
                    <g id="编组" transform="translate(3.000000, 3.000000)" fill="#4D4D4D" fill-rule="nonzero">
                        <path d="M2.61046337,3.0012507 L0.0797331529,5.53437292 C-0.0222189927,5.63724393 -0.0222189927,5.80305838 0.0797331529,5.9059294 C0.183793243,6.00495043 0.347229548,6.00495043 0.451289638,5.9059294 L2.98201986,3.37280718 L5.51514207,5.9059294 C5.61919312,5.99923298 5.77803327,5.99491115 5.87685679,5.89608763 C5.97568031,5.79726411 5.98000214,5.63842396 5.88669856,5.53437292 L3.35357634,3.0012507 L5.88669856,0.467331149 C5.96489964,0.403786486 5.99994242,0.30116178 5.97693831,0.203059058 C5.95393421,0.104956336 5.87692382,0.0286069712 5.77862643,0.0064494218 C5.68032905,-0.0157081276 5.57801024,0.0202180279 5.51514207,0.0989639883 L2.98201986,2.62969421 L0.448100308,0.0989639883 C0.343347132,0.0203991239 0.196764767,0.0308164203 0.104175174,0.123406015 C0.0115855808,0.21599561 0.00116828676,0.362577974 0.0797331529,0.467331149 L2.61046337,3.0012507 Z" id="路径"></path>
                    </g>
                </g>
            </g>
        </g>
    </g>
</svg>