<?xml version="1.0" encoding="UTF-8"?>
<svg width="20px" height="20px" viewBox="0 0 20 20" version="1.1" xmlns="http://www.w3.org/2000/svg" xmlns:xlink="http://www.w3.org/1999/xlink">
    <!-- Generator: Sketch 59 (86127) - https://sketch.com -->
    <title>Combined Shape</title>
    <desc>Created with Sketch.</desc>
    <g id="页面-1" stroke="none" stroke-width="1" fill="none" fill-rule="evenodd">
        <g id="消息页" transform="translate(-420.000000, -711.000000)" fill="#494949">
            <g id="Combined-Shape-2" transform="translate(420.000000, 711.000000)">
                <path d="M10,0 L18.5,3.1579 L18.5,9.21452 C18.5,14.31594 14.995501,18.76272 10,20 C5.004499,18.76272 1.5,14.31594 1.5,9.21452 L1.5,3.1579 L1.5,3.1579 L10,0 Z M10.0000132,1.3020405 L2.77501297,4.14415451 L2.77501297,9.21452473 C2.77501297,13.6303081 5.73737865,17.4927359 10.0000132,18.6927655 C14.2626477,17.4927359 17.2250134,13.6303081 17.2250134,9.21452473 L17.2250134,4.14415451 L17.2250134,4.14415451 L10.0000132,1.3020405 Z M14.9265469,6.31578947 L15.8281121,7.20897818 L9.50650544,13.4718687 C9.09157334,13.8829475 8.41883634,13.8829475 8.00390424,13.4718687 L7.96841359,13.4367077 C7.76335649,13.2335553 6.66971863,12.1500757 4.6875,10.1862689 L5.58906517,9.29308018 L8.75520484,12.4298177 L14.9265469,6.31578947 Z" id="Combined-Shape"></path>
            </g>
        </g>
    </g>
</svg>