<?xml version="1.0" encoding="UTF-8"?>
<svg width="28px" height="28px" viewBox="0 0 28 28" version="1.1" xmlns="http://www.w3.org/2000/svg" xmlns:xlink="http://www.w3.org/1999/xlink">
    <!-- Generator: Sketch 59 (86127) - https://sketch.com -->
    <title>Outlined/contacts</title>
    <desc>Created with Sketch.</desc>
    <g id="页面-1" stroke="none" stroke-width="1" fill="none" fill-rule="evenodd">
        <g id="消息页" transform="translate(-16.000000, -178.000000)" fill="#979797">
            <g id="Outlined/contacts-2" transform="translate(16.000000, 178.000000)">
                <g id="Outlined/contacts">
                    <path d="M12.25,3.5 C14.8273183,3.5 16.9166597,5.59181 16.9166597,8.166914 L16.9166597,10.161893 C16.9166597,11.490836 16.2177447,13.39667 15.3627763,14.410172 C15.3627763,14.410172 15.2221806,14.576835 14.940989,14.910161 C14.2532017,15.725444 14.4680632,16.763138 15.4298083,17.232257 C15.4298083,17.232257 17.6310544,18.306001 22.0335465,20.453489 C22.7513918,20.803643 23.3333333,21.729365 23.3333333,22.534715 L23.3333333,23.333324 C23.3333333,23.977667 22.810998,24.5 22.1666667,24.5 L2.33334267,24.5 C1.689002,24.5 1.16666667,23.977667 1.16666667,23.333324 L1.16666667,22.534715 C1.16666667,21.735434 1.74783233,20.803895 2.4664535,20.453216 C2.4664535,20.453216 4.66769956,19.379031 9.07019167,17.230661 C10.0279468,16.763306 10.2506332,15.728132 9.559011,14.908418 C9.559011,14.908418 9.41841522,14.741776 9.13722367,14.408492 C8.27904117,13.391336 7.58334033,11.491088 7.58334033,10.160843 L7.58334033,8.166179 C7.58334033,5.589122 9.677913,3.5 12.25,3.5 Z M12.2499967,4.90001424 C10.4490322,4.90001424 8.98332409,6.36442268 8.98332409,8.16618632 L8.98332409,10.1608518 C8.98332409,11.159959 9.5617096,12.7405744 10.2072587,13.5057025 C10.2072587,13.5057025 10.3478543,13.6723477 10.6290454,14.0056383 C11.9077296,15.5211887 11.4627416,17.620941 9.68416504,18.4888626 C9.68416504,18.4888626 7.48291737,19.5630509 3.08042205,21.7114275 C2.84318038,21.8271977 2.56666311,22.2701311 2.56666311,22.5347227 L2.56666311,23.1000147 L21.9333302,23.1000147 L21.9333302,22.5347227 C21.9333302,22.2670917 21.6587883,21.8283625 21.4197649,21.7117915 C21.4197649,21.7117915 19.2185173,20.638046 14.816022,18.4905552 C13.0350245,17.6218146 12.5948395,15.5200785 13.8708899,14.0074401 C13.8708899,14.0074401 14.0114854,13.8407766 14.2926765,13.5074497 C14.9358823,12.744997 15.5166692,11.1584666 15.5166692,10.1618892 L15.5166692,8.16691432 C15.5166692,6.36407688 14.0531883,4.90001424 12.2499967,4.90001424 Z M26.8333333,16.9166667 L26.8333333,18.3166667 L23.3333333,18.3166667 L23.3333333,16.9166667 L26.8333333,16.9166667 Z M26.8333333,13.4166667 L26.8333333,14.8166667 L21,14.8166667 L21,13.4166667 L26.8333333,13.4166667 Z M26.8333333,9.91666667 L26.8333333,11.3166667 L18.6666667,11.3166667 L18.6666667,9.91666667 L26.8333333,9.91666667 Z" id="图标颜色"></path>
                </g>
            </g>
        </g>
    </g>
</svg>