<?xml version="1.0" encoding="UTF-8"?>
<svg width="28px" height="28px" viewBox="0 0 28 28" version="1.1" xmlns="http://www.w3.org/2000/svg" xmlns:xlink="http://www.w3.org/1999/xlink">
    <!-- Generator: Sketch 59 (86127) - https://sketch.com -->
    <title>发现</title>
    <desc>Created with Sketch.</desc>
    <g id="页面-1" stroke="none" stroke-width="1" fill="none" fill-rule="evenodd">
        <g id="消息页" transform="translate(-16.000000, -226.000000)" fill="#979797">
            <g id="发现-2" transform="translate(16.000000, 226.000000)">
                <g id="Outlined/discover">
                    <path d="M14.1166667,3.5 L23.5666667,6.815795 L23.5666667,13.175246 C23.5666667,18.531737 19.6704884,23.200856 14.1166667,24.5 C8.56284497,23.200856 4.66666667,18.531737 4.66666667,13.175246 L4.66666667,6.815795 L4.66666667,6.815795 L14.1166667,3.5 Z M14.1166813,4.86714253 L6.08418109,7.85136224 L6.08418109,13.175251 C6.08418109,17.8118235 9.3776347,21.8673727 14.1166813,23.1274038 C18.8557279,21.8673727 22.1491815,17.8118235 22.1491815,13.175251 L22.1491815,7.85136224 L22.1491815,7.85136224 L14.1166813,4.86714253 Z M19.5938276,10.1315789 L20.596156,11.0694271 L13.5680168,17.6454621 C13.10671,18.0770948 12.3587847,18.0770948 11.8974779,17.6454621 C11.8974779,17.6454621 10.6684575,16.4955022 8.21041667,14.1955823 L9.212745,13.2577342 L12.7327473,16.5513086 L19.5938276,10.1315789 Z" id="Combined-Shape"></path>
                </g>
            </g>
        </g>
    </g>
</svg>