<?xml version="1.0" encoding="UTF-8"?>
<svg width="28px" height="28px" viewBox="0 0 28 28" version="1.1" xmlns="http://www.w3.org/2000/svg" xmlns:xlink="http://www.w3.org/1999/xlink">
    <!-- Generator: Sketch 59 (86127) - https://sketch.com -->
    <title>Outlined/me</title>
    <desc>Created with Sketch.</desc>
    <g id="页面-1" stroke="none" stroke-width="1" fill="none" fill-rule="evenodd">
        <g id="消息页" transform="translate(-16.000000, -322.000000)" fill="#979797">
            <g id="Outlined/me-2" transform="translate(16.000000, 322.000000)">
                <g id="Outlined/me">
                    <path d="M23.3333333,3.5 C23.9776693,3.5 24.5,4.02234 24.5,4.66666667 L24.5,23.3333333 C24.5,23.97766 23.9776693,24.5 23.3333333,24.5 L4.66666667,24.5 C4.02233067,24.5 3.5,23.97766 3.5,23.3333333 L3.5,4.66666667 C3.5,4.02234 4.02233067,3.5 4.66666667,3.5 L23.3333333,3.5 Z M23.1000147,4.89999644 L4.90001424,4.89999644 L4.90001424,23.0999969 L23.1000147,23.0999969 L23.1000147,4.89999644 Z M16.3333333,17.5 L16.3333333,18.9000001 L7,18.9000001 L7,17.5 L16.3333333,17.5 Z M16.3333333,14 L16.3333333,15.4000001 L7,15.4000001 L7,14 L16.3333333,14 Z M20.4166667,10.5 L20.4166667,11.9000001 L7,11.9000001 L7,10.5 L20.4166667,10.5 Z" id="图标颜色"></path>
                </g>
            </g>
        </g>
    </g>
</svg>