<?xml version="1.0" encoding="UTF-8"?>
<svg width="16px" height="16px" viewBox="0 0 16 16" version="1.1" xmlns="http://www.w3.org/2000/svg" xmlns:xlink="http://www.w3.org/1999/xlink">
    <!-- Generator: Sketch 59 (86127) - https://sketch.com -->
    <title>Outlined/search</title>
    <desc>Created with Sketch.</desc>
    <g id="页面-1" stroke="none" stroke-width="1" fill="none" fill-rule="evenodd" fill-opacity="0.90196079">
        <g id="消息页" transform="translate(-81.000000, -23.000000)" fill="#B2B2B2">
            <g id="Outlined/search-2" transform="translate(81.000000, 23.000000)">
                <g id="Outlined/search">
                    <path d="M7.33333333,2.66666667 C9.910668,2.66666667 12,4.75599867 12,7.33333333 C12,8.49515198 11.5754366,9.55780589 10.8729941,10.3746109 L13.3804983,12.881497 L13.3804983,12.881497 C13.5106713,13.01167 13.5106718,13.2227255 13.3804968,13.3529005 L13.2862163,13.447181 L13.2862163,13.447181 C13.1560413,13.577356 12.9449859,13.5773555 12.8148129,13.4471825 C12.8148129,13.4471825 11.9770218,12.6093914 10.3014396,10.9338092 C9.49488259,11.6001707 8.46080178,12 7.33333333,12 C4.75599867,12 2.66666667,9.910668 2.66666667,7.33333333 C2.66666667,4.75599867 4.75599867,2.66666667 7.33333333,2.66666667 Z M7.3333416,3.46668498 C5.19783566,3.46668498 3.4666748,5.19784583 3.4666748,7.33335177 C3.4666748,9.46885771 5.19783566,11.2000186 7.3333416,11.2000186 C9.46884754,11.2000186 11.2000084,9.46885771 11.2000084,7.33335177 C11.2000084,5.19784583 9.46884754,3.46668498 7.3333416,3.46668498 Z" id="图标颜色"></path>
                </g>
            </g>
        </g>
    </g>
</svg>