<?xml version="1.0" encoding="UTF-8"?>
<svg width="28px" height="28px" viewBox="0 0 28 28" version="1.1" xmlns="http://www.w3.org/2000/svg" xmlns:xlink="http://www.w3.org/1999/xlink">
    <!-- Generator: Sketch 59 (86127) - https://sketch.com -->
    <title>钱包</title>
    <desc>Created with Sketch.</desc>
    <g id="页面-1" stroke="none" stroke-width="1" fill="none" fill-rule="evenodd">
        <g id="消息页" transform="translate(-16.000000, -274.000000)" fill="#979797">
            <g id="钱包-2" transform="translate(16.000000, 274.000000)">
                <g id="Outlined/discover">
                    <path d="M24.5,4.66666667 C25.1443267,4.66666667 25.6666667,5.18899733 25.6666667,5.83333333 L25.6666667,11.2 L25.6666667,11.2 L25.6432769,11.1998197 C25.6586053,11.2752691 25.6666522,11.3533633 25.6666522,11.4333369 L25.6666522,11.4333369 L25.6666522,16.5666703 C25.6666522,16.6466439 25.6586053,16.7247381 25.6432769,16.8001875 L25.6666667,16.8 L25.6666667,22.1666667 C25.6666667,22.8110027 25.1443267,23.3333333 24.5,23.3333333 L3.5,23.3333333 L3.5,23.3333333 C2.85567333,23.3333333 2.33333333,22.8110027 2.33333333,22.1666667 L2.33333333,5.83333333 L2.33333333,5.83333333 C2.33333333,5.18899733 2.85567333,4.66666667 3.5,4.66666667 L24.5,4.66666667 L24.5,4.66666667 Z M24.2666667,6.06666667 L3.73333333,6.06666667 L3.73333333,21.9333333 L24.2666667,21.9333333 L24.2663333,17.7326667 L17.4999918,17.733337 C15.5046382,17.733337 13.8748957,16.1679616 13.7718273,14.1982768 L13.7666524,14.0000036 C13.7666524,11.9381433 15.4381264,10.2666702 17.4999918,10.2666702 L17.4999918,10.2666702 L24.2663333,10.2666667 L24.2666667,6.06666667 Z M24.2666524,11.6666667 L17.4999918,11.6666702 C16.211317,11.6666702 15.1666517,12.7113391 15.1666517,14.0000036 C15.1666517,15.2886682 16.211317,16.333337 17.4999918,16.333337 L17.4999918,16.333337 L24.2666524,16.3333333 L24.2666524,11.6666667 Z M17.5,12.8333333 C18.1443313,12.8333333 18.6666667,13.3556687 18.6666667,14 C18.6666667,14.6443313 18.1443313,15.1666667 17.5,15.1666667 C16.8556687,15.1666667 16.3333333,14.6443313 16.3333333,14 C16.3333333,13.3556687 16.8556687,12.8333333 17.5,12.8333333 Z" id="图标颜色"></path>
                </g>
            </g>
        </g>
    </g>
</svg>