<?xml version="1.0" encoding="UTF-8"?>
<svg width="20px" height="20px" viewBox="0 0 20 20" version="1.1" xmlns="http://www.w3.org/2000/svg" xmlns:xlink="http://www.w3.org/1999/xlink">
    <!-- Generator: Sketch 59 (86127) - https://sketch.com -->
    <title>图标颜色</title>
    <desc>Created with Sketch.</desc>
    <g id="页面-1" stroke="none" stroke-width="1" fill="none" fill-rule="evenodd">
        <g id="消息页" transform="translate(-338.000000, -711.000000)" fill="#494949">
            <g id="图标颜色-4" transform="translate(338.000000, 711.000000)">
                <path d="M10,0 C15.52284,0 20,4.47716 20,10 C20,15.52284 15.52284,20 10,20 C4.47716,20 0,15.52284 0,10 C0,4.47716 4.47716,0 10,0 Z M9.99999714,1.19999695 C5.13989783,1.19999695 1.19999695,5.13989783 1.19999695,9.99999714 C1.19999695,14.8600964 5.13989783,18.7999973 9.99999714,18.7999973 C14.8600964,18.7999973 18.7999973,14.8600964 18.7999973,9.99999714 C18.7999973,5.13989783 14.8600964,1.19999695 9.99999714,1.19999695 Z M16,10.5 C16,13.81371 13.313704,16.5 10,16.5 C6.686296,16.5 4,13.81371 4,10.5 L16,10.5 Z M14.648777,11.6999969 L5.35121918,11.6999969 C5.88407151,13.7702705 7.76338688,15.2999969 9.99999809,15.2999969 C12.2366093,15.2999969 14.1159247,13.7702705 14.648777,11.6999969 Z M6.5,5.5 C7.328426,5.5 8,6.171574 8,7 C8,7.828426 7.328426,8.5 6.5,8.5 C5.671574,8.5 5,7.828426 5,7 C5,6.171574 5.671574,5.5 6.5,5.5 Z M13.5,5.5 C14.328426,5.5 15,6.171574 15,7 C15,7.828426 14.328426,8.5 13.5,8.5 C12.671574,8.5 12,7.828426 12,7 C12,6.171574 12.671574,5.5 13.5,5.5 Z" id="图标颜色"></path>
            </g>
        </g>
    </g>
</svg>