<?xml version="1.0" encoding="UTF-8"?>
<svg width="20px" height="20px" viewBox="0 0 20 20" version="1.1" xmlns="http://www.w3.org/2000/svg" xmlns:xlink="http://www.w3.org/1999/xlink">
    <!-- Generator: Sketch 59 (86127) - https://sketch.com -->
    <title>图标颜色</title>
    <desc>Created with Sketch.</desc>
    <g id="页面-1" stroke="none" stroke-width="1" fill="none" fill-rule="evenodd">
        <g id="消息页" transform="translate(-461.000000, -711.000000)" fill="#494949">
            <g id="图标颜色-6" transform="translate(461.000000, 711.000000)">
                <path d="M10,0 C15.52284,0 20,4.47716 20,10 C20,15.52284 15.52284,20 10,20 C4.47716,20 0,15.52284 0,10 C0,4.47716 4.47716,0 10,0 Z M10,1.19999695 C5.13990069,1.19999695 1.19999981,5.13989783 1.19999981,9.99999714 C1.19999981,14.8600964 5.13990069,18.7999973 10,18.7999973 C14.8600993,18.7999973 18.8000002,14.8600964 18.8000002,9.99999714 C18.8000002,5.13989783 14.8600993,1.19999695 10,1.19999695 Z M8,6 L9.6,9.2 L10.4,9.2 L12,6 L13.5,6 L11.9,9.2 L13.5,9.20001221 L13.5,10.4000123 L10.6,10.4 L10.6,11.5 L13.5,11.5 L13.5,12.7 L10.6,12.7 L10.6000245,14.5 L9.40002441,14.5 L9.4,12.7 L6.5,12.7 L6.5,11.5 L9.4,11.5 L9.4,10.4 L6.5,10.4000123 L6.5,9.20001221 L8.1,9.2 L6.5,6 L8,6 Z" id="图标颜色"></path>
            </g>
        </g>
    </g>
</svg>