<?xml version="1.0" encoding="UTF-8"?>
<svg width="18px" height="4px" viewBox="0 0 18 4" version="1.1" xmlns="http://www.w3.org/2000/svg" xmlns:xlink="http://www.w3.org/1999/xlink">
    <!-- Generator: Sketch 59 (86127) - https://sketch.com -->
    <title>图标颜色</title>
    <desc>Created with Sketch.</desc>
    <g id="页面-1" stroke="none" stroke-width="1" fill="none" fill-rule="evenodd" fill-opacity="0.90196079">
        <g id="消息页" transform="translate(-1403.000000, -28.000000)" fill="#000000">
            <g id="图标颜色-3" transform="translate(1403.000000, 28.000000)">
                <path d="M2,0 C3.1044,0 4,0.8952 4,2 C4,3.1044 3.1044,4 2,4 C0.8956,4 0,3.1044 0,2 C0,0.8952 0.8956,0 2,0 Z M9,0 C10.1044,0 11,0.8952 11,2 C11,3.1044 10.1044,4 9,4 C7.8956,4 7,3.1044 7,2 C7,0.8952 7.8956,0 9,0 Z M16,0 C17.1044,0 18,0.8952 18,2 C18,3.1044 17.1044,4 16,4 C14.8956,4 14,3.1044 14,2 C14,0.8952 14.8956,0 16,0 Z" id="图标颜色"></path>
            </g>
        </g>
    </g>
</svg>