<?xml version="1.0" encoding="UTF-8"?>
<svg width="20px" height="20px" viewBox="0 0 20 20" version="1.1" xmlns="http://www.w3.org/2000/svg" xmlns:xlink="http://www.w3.org/1999/xlink">
    <!-- Generator: Sketch 59 (86127) - https://sketch.com -->
    <title>图标颜色</title>
    <desc>Created with Sketch.</desc>
    <g id="页面-1" stroke="none" stroke-width="1" fill="none" fill-rule="evenodd">
        <g id="消息页" transform="translate(-379.000000, -711.000000)" fill="#494949">
            <g id="图标颜色-5" transform="translate(379.000000, 711.000000)">
                <path d="M10,0 C15.52284,0 20,4.47716 20,10 C20,15.52284 15.52284,20 10,20 C4.47716,20 0,15.52284 0,10 C0,4.47716 4.47716,0 10,0 Z M9.99999714,1.19999695 C5.13989783,1.19999695 1.19999695,5.13989783 1.19999695,9.99999714 C1.19999695,14.8600964 5.13989783,18.7999973 9.99999714,18.7999973 C14.8600964,18.7999973 18.7999973,14.8600964 18.7999973,9.99999714 C18.7999973,5.13989783 14.8600964,1.19999695 9.99999714,1.19999695 Z M14.5000056,10.8800049 C14.7761428,10.8800049 15.000001,11.1038645 15.000001,11.3800049 C15.000001,11.5279901 14.9344531,11.6683712 14.8209861,11.7633694 C14.8209861,11.7633694 13.7671801,12.6457 11.6595682,14.4103613 C11.490189,14.5521809 11.2379118,14.5298374 11.0960955,14.360456 C10.9826982,14.2250321 10.9715595,14.0312707 11.0686719,13.8837401 C11.0686719,13.8837401 11.464441,13.2824954 12.2559792,12.080006 L5.04588318,12.080006 L5.04588318,10.8800049 L14.5000056,10.8800049 Z M8.94978863,5.64322206 C9.06317598,5.77864597 9.0743246,5.9724074 8.97721222,6.11993801 C8.97721222,6.11993801 8.58144314,6.7211827 7.78990496,7.92367208 L15.000001,7.92367208 L15.000001,9.1236732 L5.54588318,9.1236732 C5.26974133,9.1236732 5.04588318,8.89981354 5.04588318,8.62367153 C5.04588318,8.50528467 5.08783381,8.3917634 5.16270916,8.30245128 L5.22489803,8.24030864 C5.22489803,8.24030864 6.27870398,7.35797804 8.38631588,5.59331683 C8.55569515,5.45149713 8.80797231,5.4738407 8.94978863,5.64322206 Z" id="图标颜色"></path>
            </g>
        </g>
    </g>
</svg>