<?xml version="1.0" encoding="UTF-8"?>
<svg width="28px" height="28px" viewBox="0 0 28 28" version="1.1" xmlns="http://www.w3.org/2000/svg" xmlns:xlink="http://www.w3.org/1999/xlink">
    <!-- Generator: Sketch 59 (86127) - https://sketch.com -->
    <title>客服</title>
    <desc>Created with Sketch.</desc>
    <g id="页面-1" stroke="none" stroke-width="1" fill="none" fill-rule="evenodd">
        <g id="消息页" transform="translate(-16.000000, -798.000000)" fill="#979797">
            <g id="客服-2" transform="translate(16.000000, 798.000000)">
                <g id="Outlined/discover">
                    <g id="编组" transform="translate(2.333333, 2.333333)">
                        <path d="M1.21279021,12.7317504 L1.21279021,15.2837036 C1.21279021,16.3386473 2.02726722,17.1938482 3.03197553,17.1938482 C4.03668385,17.1938482 4.85116086,16.3386473 4.85116086,15.2837036 L4.85116086,12.7317504 C4.85116086,11.6768067 4.03668385,10.8216058 3.03197553,10.8216058 C2.02726722,10.8216058 1.21279021,11.6768067 1.21279021,12.7317504 Z M17.9329226,17.5987988 C17.3238,16.9987676 16.9784957,16.1606859 16.979063,15.2837036 L16.979063,12.7317504 C16.9803545,10.9831703 18.3245407,9.56296249 19.9898148,9.55072296 C19.6787341,4.92498946 16.0057989,1.27342972 11.5215071,1.27342972 C7.03660885,1.27342972 3.36428007,4.92498946 3.05319937,9.55072296 C4.71805841,9.5639993 6.06166964,10.9835997 6.06395109,12.7317504 L6.06395109,15.2837036 C6.06395109,17.0419431 4.7064894,18.4672779 3.03197555,18.4672779 C1.35746169,18.4672779 0,17.0419431 0,15.2837036 L0,12.7317504 C0.000706884551,11.4640466 0.717655666,10.3175955 1.82524928,9.81304949 C2.01323176,4.36022339 6.28225332,0 11.5215071,0 C16.7607608,0 21.0297824,4.36022339 21.2177649,9.81304949 C22.3250395,10.3179934 23.0418327,11.4641958 23.0430141,12.7317504 L23.0430141,15.2837036 C23.0423485,16.3180552 22.5631417,17.2875925 21.7579983,17.8835638 C20.9528549,18.479535 19.92215,18.6276423 18.994114,18.2807205 C17.8490419,19.5469876 16.4293596,20.5037752 14.8560738,21.0695316 C14.8267364,22.2801367 13.8815568,23.2442925 12.7282333,23.2401062 L10.9199631,23.2401062 C9.74355661,23.2401062 8.79212269,22.2468173 8.79212269,21.0115905 C8.79212269,19.7782738 9.74052464,18.7830885 10.9205695,18.7830885 L12.7276269,18.7830885 C13.493504,18.7830885 14.1635706,19.2033203 14.5383227,19.8368516 C15.8140117,19.3649728 16.9734655,18.6004107 17.9323161,17.5987988 L17.9329226,17.5987988 Z M18.1918533,12.7317504 L18.1918533,15.2837036 C18.1918533,16.3386473 19.0063303,17.1938482 20.0110386,17.1938482 C21.0157469,17.1938482 21.8302239,16.3386473 21.8302239,15.2837036 L21.8302239,12.7317504 C21.8302239,11.6768067 21.0157469,10.8216058 20.0110386,10.8216058 C19.0063303,10.8216058 18.1918533,11.6768067 18.1918533,12.7317504 L18.1918533,12.7317504 Z M10.9211759,21.9666628 L12.7282333,21.9666628 C13.238818,21.9666628 13.6438899,21.5413373 13.6438899,21.0115905 C13.6438899,20.481207 13.2369988,20.0565182 12.7282333,20.0565182 L10.9211759,20.0565182 C10.4105912,20.0565182 10.0055193,20.4818437 10.0055193,21.0115905 C10.0055193,21.541974 10.4124104,21.9666628 10.9211759,21.9666628 L10.9211759,21.9666628 Z" id="形状" fill-rule="nonzero"></path>
                    </g>
                </g>
            </g>
        </g>
    </g>
</svg>