<svg xmlns="http://www.w3.org/2000/svg" version="1.1" id="Capa_1" x="0px" y="0px" viewBox="0 0 514.666 514.666"><path d="M514.666,210.489L257.333,99.353L0,210.489l45.933,19.837v123.939h30V243.282l33.052,14.274v107.678l4.807,4.453  c2.011,1.862,50.328,45.625,143.542,45.625c93.213,0,141.53-43.763,143.541-45.626l4.807-4.452V257.557L514.666,210.489z   M257.333,132.031L439,210.489l-181.667,78.458L75.666,210.489L257.333,132.031z M375.681,351.432  c-13.205,9.572-53.167,33.881-118.348,33.881c-65.23,0-105.203-24.345-118.348-33.875v-80.925l118.348,51.112l118.348-51.111  V351.432z"></path></svg>
